<svg width="18" height="18" viewBox="0 0 18 18" fill="none" xmlns="http://www.w3.org/2000/svg">
<g clip-path="url(#clip0_3584_29)">
<path d="M9 16.5C13.1422 16.5 16.5 13.1422 16.5 9C16.5 4.85775 13.1422 1.5 9 1.5C4.85775 1.5 1.5 4.85775 1.5 9C1.5 13.1422 4.85775 16.5 9 16.5Z" stroke="#999999" stroke-width="1.5" stroke-linecap="round" stroke-linejoin="round"/>
<path d="M1.50012 9H16.5001" stroke="#999999" stroke-width="1.5" stroke-linecap="round" stroke-linejoin="round"/>
<path d="M9.00012 16.5C10.6569 16.5 12.0001 13.1422 12.0001 9C12.0001 4.85775 10.6569 1.5 9.00012 1.5C7.34337 1.5 6.00012 4.85775 6.00012 9C6.00012 13.1422 7.34337 16.5 9.00012 16.5Z" stroke="#999999" stroke-width="1.5" stroke-linecap="round" stroke-linejoin="round"/>
<path d="M3.69684 3.80347C4.39249 4.50096 5.21913 5.05409 6.12924 5.43108C7.03935 5.80808 8.01499 6.00149 9.00009 6.00022V6.00022C9.98519 6.00149 10.9608 5.80808 11.8709 5.43108C12.7811 5.05409 13.6077 4.50096 14.3033 3.80347" stroke="#999999" stroke-width="1.5" stroke-linecap="round" stroke-linejoin="round"/>
<path d="M14.3033 14.197C13.6077 13.4995 12.7811 12.9464 11.8709 12.5694C10.9608 12.1924 9.98519 11.999 9.00009 12.0003C8.01499 11.999 7.03935 12.1924 6.12924 12.5694C5.21913 12.9464 4.39249 13.4995 3.69684 14.197" stroke="#999999" stroke-width="1.5" stroke-linecap="round" stroke-linejoin="round"/>
</g>
<defs>
<clipPath id="clip0_3584_29">
<rect width="18" height="18" fill="white"/>
</clipPath>
</defs>
</svg>
